<svg width="20" height="17" viewBox="0 0 20 17" fill="none" xmlns="http://www.w3.org/2000/svg">
<g clip-path="url(#clip0_6_156)">
<path d="M17.9219 6.26875L16.3406 1.525C16.1375 0.9125 15.5656 0.5 14.9187 0.5H5.08125C4.43437 0.5 3.8625 0.9125 3.65937 1.525L2.07812 6.26875C2.02812 6.42188 2 6.58125 2 6.74375V15C2 15.8281 2.67188 16.5 3.5 16.5H16.5C17.3281 16.5 18 15.8281 18 15V6.74375C18 6.58125 17.975 6.42188 17.9219 6.26875ZM3 6.74375C3 6.69063 3.00937 6.6375 3.025 6.58437L4.60625 1.84063C4.675 1.6375 4.86562 1.5 5.08125 1.5H9.5V6.75H3V6.74375ZM17 15C17 15.275 16.775 15.5 16.5 15.5H3.5C3.225 15.5 3 15.275 3 15V7.75H17V15ZM17 6.75H10.5V1.5H14.9187C15.1344 1.5 15.325 1.6375 15.3938 1.84063L16.975 6.58437C16.9906 6.63438 17 6.6875 17 6.74375V6.75Z" fill="black" stroke="black" stroke-width="0.03125"/>
</g>
<defs>
<clipPath id="clip0_6_156">
<rect width="20" height="16" fill="white" transform="translate(0 0.5)"/>
</clipPath>
</defs>
</svg>
