<svg width="20" height="21" viewBox="0 0 20 21" fill="none" xmlns="http://www.w3.org/2000/svg">
<g clip-path="url(#clip0_6_150)">
<path d="M8.75 8.5C8.8875 8.5 9 8.3875 9 8.25V7.75C9 7.6125 8.8875 7.5 8.75 7.5H1.25C1.1125 7.5 1 7.6125 1 7.75V8.25C1 8.3875 1.1125 8.5 1.25 8.5H8.75ZM19.75 14.5H19V11.1219C19 10.5969 18.7875 10.0812 18.4125 9.70937L15.7906 7.0875C15.4219 6.7125 14.9062 6.5 14.3781 6.5H13V4.95625C13 4.15312 12.3063 3.5 11.4563 3.5H3.54375C2.69375 3.5 2 4.15312 2 4.95625V5.5H0.25C0.1125 5.5 0 5.6125 0 5.75V6.25C0 6.3875 0.1125 6.5 0.25 6.5H7.75C7.8875 6.5 8 6.3875 8 6.25V5.75C8 5.6125 7.8875 5.5 7.75 5.5H3V4.95625C3 4.70312 3.24375 4.5 3.54375 4.5H11.4563C11.7563 4.5 12 4.70312 12 4.95625V14.5H6.4875C6.03125 13.8969 5.3125 13.5 4.5 13.5C3.93438 13.5 3.41875 13.6937 3 14.0125V11.5H2V16C2 17.3813 3.11875 18.5 4.5 18.5C5.88125 18.5 7 17.3813 7 16C7 15.8281 6.98125 15.6625 6.95 15.5H13.05C13.0156 15.6625 13 15.8281 13 16C13 17.3813 14.1187 18.5 15.5 18.5C16.8813 18.5 18 17.3813 18 16C18 15.8281 17.9813 15.6625 17.95 15.5H19.75C19.8875 15.5 20 15.3875 20 15.25V14.75C20 14.6125 19.8875 14.5 19.75 14.5ZM4.5 17.5C3.67188 17.5 3 16.8281 3 16C3 15.1719 3.67188 14.5 4.5 14.5C5.32812 14.5 6 15.1719 6 16C6 16.8281 5.32812 17.5 4.5 17.5ZM13 7.5H14.3781C14.6406 7.5 14.9 7.60625 15.0844 7.79375L17.7062 10.4156C17.7312 10.4406 17.7406 10.475 17.7625 10.5031H13V7.5ZM15.5 17.5C14.6719 17.5 14 16.8281 14 16C14 15.1719 14.6719 14.5 15.5 14.5C16.3281 14.5 17 15.1719 17 16C17 16.8281 16.3281 17.5 15.5 17.5ZM18 14.5H17.4875C17.0312 13.8969 16.3125 13.5 15.5 13.5C14.6875 13.5 13.9688 13.8969 13.5125 14.5H13V11.5H18V14.5ZM8 10.25V9.75C8 9.6125 7.8875 9.5 7.75 9.5H0.25C0.1125 9.5 0 9.6125 0 9.75V10.25C0 10.3875 0.1125 10.5 0.25 10.5H7.75C7.8875 10.5 8 10.3875 8 10.25Z" fill="black" stroke="black" stroke-width="0.03125"/>
</g>
<defs>
<clipPath id="clip0_6_150">
<rect width="20" height="20" fill="white" transform="translate(0 0.5)"/>
</clipPath>
</defs>
</svg>
